<svg xmlns="http://www.w3.org/2000/svg" width="24" height="24" viewBox="0 0 24 24">
  <defs>
    <linearGradient id="bkn_-ra_n-a" x1="50%" x2="50%" y1="0%" y2="100%">
      <stop offset="0%" stop-color="#FFBE1D"/>
      <stop offset="100%" stop-color="#FFB300"/>
    </linearGradient>
    <radialGradient id="bkn_-ra_n-b" cx="38.236%" cy="10.579%" r="93.609%" fx="38.236%" fy="10.579%">
      <stop offset="0%" stop-color="#F03C00" stop-opacity="0"/>
      <stop offset="72.663%" stop-color="#F03C00" stop-opacity="0"/>
      <stop offset="100%" stop-color="#F03C00"/>
    </radialGradient>
    <radialGradient id="bkn_-ra_n-c" cx="88.2%" cy="11.315%" fx="88.2%" fy="11.315%">
      <stop offset="0%" stop-color="#9699C7"/>
      <stop offset="100%" stop-color="#9499C9" stop-opacity="0"/>
    </radialGradient>
    <radialGradient id="bkn_-ra_n-d" cx="8.171%" cy="-6.535%" r="63.588%" fx="8.171%" fy="-6.535%">
      <stop offset="0%" stop-color="#9699C7"/>
      <stop offset="100%" stop-color="#9499C9" stop-opacity="0"/>
    </radialGradient>
    <linearGradient id="bkn_-ra_n-e" x1="50%" x2="50%" y1="0%" y2="100%">
      <stop offset="0%" stop-color="#A4C5F4"/>
      <stop offset="100%" stop-color="#A7C7F2"/>
    </linearGradient>
    <radialGradient id="bkn_-ra_n-f" cx="88.2%" cy="9.456%" r="48.142%" fx="88.2%" fy="9.456%">
      <stop offset="0%" stop-color="#486DA8"/>
      <stop offset="100%" stop-color="#486DA8" stop-opacity="0"/>
    </radialGradient>
    <radialGradient id="bkn_-ra_n-g" cx="14.445%" cy="0%" fx="14.445%" fy="0%">
      <stop offset="0%" stop-color="#486DA8"/>
      <stop offset="100%" stop-color="#486DA8" stop-opacity="0"/>
    </radialGradient>
    <linearGradient id="bkn_-ra_n-h" x1="50%" x2="50%" y1="0%" y2="122.366%">
      <stop offset="0%" stop-color="#A4C5F4"/>
      <stop offset="100%" stop-color="#A7C7F2"/>
    </linearGradient>
  </defs>
  <g fill="none" fill-rule="evenodd">
    <path fill="url(#bkn_-ra_n-a)" d="M7.50825261,2.36674739 C9.1927071,3.07743807 10.375,4.74439938 10.375,6.6875 C10.375,9.27633476 8.27633476,11.375 5.6875,11.375 C3.74439938,11.375 2.07743807,10.1927071 1.36674739,8.50825261 C1.92652786,8.74443042 2.54176585,8.875 3.1875,8.875 C5.77633476,8.875 7.875,6.77633476 7.875,4.1875 C7.875,3.54176585 7.74443042,2.92652786 7.50825261,2.36674739 L7.50825261,2.36674739 Z"/>
    <circle cx="5.688" cy="6.688" r="4.688" fill="url(#bkn_-ra_n-b)" opacity=".3"/>
    <circle cx="8" cy="13" r="4" fill="url(#bkn_-ra_n-c)" opacity=".2"/>
    <circle cx="18.5" cy="14.5" r="2.5" fill="url(#bkn_-ra_n-d)" opacity=".2"/>
    <path fill="url(#bkn_-ra_n-e)" d="M8,17 C5.790861,17 4,15.209139 4,13 C4,10.790861 5.790861,9 8,9 C8.41665567,9 8.81843235,9.06370454 9.19612127,9.18190486 C9.75960062,7.33975064 11.4733425,6 13.5,6 C15.9852814,6 18,8.01471863 18,10.5 C18,10.7345695 17.9820524,10.9649471 17.9474555,11.1898344 C18.2749642,11.0671106 18.6296448,11 19,11 C20.6568542,11 22,12.3431458 22,14 C22,15.6568542 20.6568542,17 19,17 L8,17 Z"/>
    <circle cx="8" cy="13" r="4" fill="url(#bkn_-ra_n-f)" opacity=".344"/>
    <circle cx="19" cy="14" r="3" fill="url(#bkn_-ra_n-g)" opacity=".2"/>
    <circle cx="13.5" cy="10.5" r="4.5" fill="url(#bkn_-ra_n-h)"/>
    <path stroke="#66AFEB" stroke-linecap="round" stroke-linejoin="round" stroke-width="1.5" d="M9.80000019 19.7536011L8.75 22.2530518M14.8000002 18.7536011L13.75 21.2530518"/>
  </g>
</svg>
